
<svg xmlns="http://www.w3.org/2000/svg" xmlns:xlink="http://www.w3.org/1999/xlink" width="24px" height="30px">
    <symbol id="tablet">
        <path fill-rule="evenodd"
            d="M18.266,29.975 L5.735,29.975 C3.104,29.975 0.964,27.751 0.964,25.017 L0.964,4.944 C0.964,2.210 3.104,-0.014 5.735,-0.014 L18.266,-0.014 C20.897,-0.014 23.038,2.210 23.038,4.944 L23.038,25.017 C23.038,27.751 20.897,29.975 18.266,29.975 ZM21.103,4.944 C21.103,3.318 19.831,1.996 18.266,1.996 L5.735,1.996 C4.171,1.996 2.899,3.318 2.899,4.944 L2.899,25.017 C2.899,26.643 4.171,27.965 5.735,27.965 L18.266,27.965 C19.831,27.965 21.103,26.643 21.103,25.017 L21.103,4.944 ZM12.969,5.431 L11.034,5.431 C10.500,5.431 10.066,4.981 10.066,4.426 C10.066,3.870 10.500,3.420 11.034,3.420 L12.969,3.420 C13.503,3.420 13.936,3.870 13.936,4.426 C13.936,4.981 13.503,5.431 12.969,5.431 ZM12.001,24.808 C12.534,24.808 12.969,25.258 12.969,25.813 C12.969,26.368 12.534,26.818 12.001,26.818 C11.468,26.818 11.034,26.368 11.034,25.813 C11.034,25.258 11.468,24.808 12.001,24.808 Z" />
    </symbol>
</svg>
