<svg xmlns="http://www.w3.org/2000/svg" xmlns:xlink="http://www.w3.org/1999/xlink" width="28px" height="24px">
    <symbol id="dashboard">
        <path fill-rule="evenodd"
            d="M24.693,22.771 C24.504,23.019 24.211,23.164 23.900,23.164 L3.804,23.164 C3.494,23.164 3.201,23.019 3.012,22.771 C1.311,20.548 0.335,17.565 0.335,14.586 C0.335,7.038 6.399,0.897 13.852,0.897 C21.306,0.897 27.369,7.026 27.369,14.561 C27.369,17.556 26.394,20.549 24.693,22.771 ZM13.852,2.914 C7.503,2.914 2.338,8.150 2.338,14.586 C2.338,16.956 3.053,19.317 4.313,21.147 L23.393,21.147 C24.652,19.317 25.367,16.946 25.367,14.561 C25.367,8.139 20.201,2.914 13.852,2.914 ZM21.789,14.773 C21.236,14.773 20.788,14.322 20.788,13.765 C20.788,9.883 17.677,6.725 13.852,6.725 C10.028,6.725 6.917,9.896 6.917,13.793 C6.917,14.350 6.468,14.801 5.916,14.801 C5.363,14.801 4.914,14.350 4.914,13.793 C4.914,8.783 8.924,4.708 13.852,4.708 C18.780,4.708 22.791,8.771 22.791,13.765 C22.791,14.322 22.343,14.773 21.789,14.773 ZM17.703,10.654 C17.703,10.654 16.722,16.356 15.675,17.594 C14.628,18.833 12.783,18.981 11.554,17.927 C10.324,16.872 10.176,15.014 11.223,13.776 C12.270,12.538 17.703,10.654 17.703,10.654 Z" />

    </symbol>
</svg>
