<svg xmlns="http://www.w3.org/2000/svg" xmlns:xlink="http://www.w3.org/1999/xlink" width="26px" height="26px">
    <symbol id="settings">
        <path fill-rule="evenodd"
            d="M24.759,18.472 C24.643,18.711 24.438,18.895 24.187,18.983 C23.935,19.072 23.661,19.056 23.421,18.940 L22.849,18.664 C22.351,19.494 21.744,20.259 21.051,20.929 L21.444,21.422 C21.790,21.855 21.719,22.487 21.286,22.833 C19.823,24.005 18.086,24.844 16.266,25.259 C15.718,25.386 15.189,25.045 15.066,24.505 L14.926,23.891 C13.955,24.025 13.007,24.026 12.036,23.894 L11.898,24.508 C11.839,24.767 11.679,24.993 11.455,25.135 C11.294,25.237 11.108,25.290 10.920,25.290 C10.847,25.290 10.772,25.282 10.699,25.265 C8.877,24.853 7.139,24.017 5.673,22.847 C5.465,22.682 5.331,22.439 5.302,22.175 C5.271,21.911 5.348,21.646 5.513,21.437 L5.906,20.944 C5.211,20.276 4.602,19.512 4.103,18.683 L3.532,18.959 C3.035,19.202 2.435,18.994 2.194,18.495 C1.369,16.791 0.948,14.961 0.944,13.054 C0.943,12.788 1.049,12.532 1.236,12.343 C1.423,12.155 1.678,12.049 1.944,12.048 L2.567,12.047 C2.655,11.078 2.870,10.134 3.211,9.221 L2.641,8.947 C2.401,8.832 2.217,8.626 2.129,8.374 C2.041,8.123 2.056,7.848 2.171,7.608 C2.980,5.922 4.176,4.411 5.633,3.241 C6.067,2.895 6.696,2.964 7.042,3.395 L7.436,3.886 C8.241,3.354 9.121,2.928 10.039,2.623 L9.897,2.007 C9.838,1.748 9.884,1.474 10.025,1.249 C10.165,1.023 10.391,0.863 10.649,0.803 C12.459,0.385 14.405,0.380 16.216,0.786 C16.756,0.906 17.096,1.443 16.975,1.984 L16.838,2.601 C17.756,2.899 18.637,3.322 19.448,3.851 L19.840,3.356 C20.005,3.147 20.246,3.013 20.510,2.982 C20.772,2.947 21.039,3.027 21.247,3.193 C22.712,4.357 23.919,5.859 24.736,7.538 C24.853,7.777 24.870,8.054 24.783,8.306 C24.697,8.557 24.514,8.764 24.275,8.881 L23.706,9.158 C24.054,10.075 24.276,11.022 24.368,11.991 L24.982,11.983 C25.233,11.972 25.508,12.085 25.698,12.272 C25.889,12.462 25.997,12.718 25.997,12.987 C25.997,14.935 25.581,16.765 24.759,18.472 ZM23.428,14.011 C23.162,13.979 22.902,13.910 22.712,13.723 C22.522,13.535 22.414,13.278 22.413,13.011 C22.410,11.658 22.104,10.347 21.505,9.116 C21.263,8.617 21.469,8.017 21.967,7.774 L22.452,7.537 C21.980,6.767 21.409,6.055 20.757,5.427 L20.424,5.848 C20.081,6.282 19.451,6.355 19.017,6.011 C17.955,5.168 16.749,4.590 15.432,4.294 C14.892,4.173 14.553,3.636 14.674,3.096 L14.790,2.573 C13.896,2.462 12.977,2.465 12.086,2.582 L12.208,3.105 C12.268,3.364 12.222,3.637 12.081,3.863 C11.940,4.088 11.715,4.249 11.456,4.309 C10.154,4.609 8.918,5.208 7.880,6.042 C7.449,6.390 6.819,6.320 6.472,5.888 L6.137,5.472 C5.490,6.103 4.922,6.819 4.455,7.592 L4.942,7.827 C5.441,8.066 5.651,8.665 5.411,9.165 C4.824,10.393 4.527,11.692 4.527,13.028 C4.527,13.582 4.080,14.052 3.528,14.053 L2.997,14.053 C3.083,14.961 3.286,15.844 3.602,16.695 L4.088,16.459 C4.328,16.341 4.603,16.326 4.854,16.413 C5.105,16.501 5.312,16.684 5.428,16.924 C6.011,18.131 6.870,19.206 7.909,20.035 C8.116,20.201 8.250,20.443 8.280,20.708 C8.310,20.971 8.234,21.237 8.068,21.446 L7.736,21.864 C8.494,22.358 9.317,22.754 10.174,23.038 L10.292,22.515 C10.350,22.255 10.510,22.030 10.734,21.888 C10.959,21.746 11.228,21.698 11.490,21.757 C12.833,22.062 14.125,22.061 15.467,21.753 C15.724,21.694 15.998,21.741 16.223,21.882 C16.448,22.023 16.608,22.248 16.666,22.508 L16.786,23.032 C17.642,22.747 18.464,22.348 19.222,21.854 L18.889,21.435 C18.543,21.003 18.614,20.370 19.045,20.025 C20.083,19.194 20.939,18.116 21.521,16.908 C21.761,16.409 22.358,16.198 22.859,16.440 L23.347,16.675 C23.664,15.815 23.865,14.922 23.948,14.004 L23.428,14.011 ZM13.591,19.296 C10.275,19.296 7.578,16.595 7.578,13.274 C7.578,9.954 10.275,7.252 13.591,7.252 C16.906,7.252 19.603,9.954 19.603,13.274 C19.603,16.595 16.906,19.296 13.591,19.296 ZM13.591,9.259 C11.380,9.259 9.582,11.060 9.582,13.274 C9.582,15.488 11.380,17.289 13.591,17.289 C15.801,17.289 17.599,15.488 17.599,13.274 C17.599,11.060 15.801,9.259 13.591,9.259 Z" />
    </symbol>
</svg>
