<svg width="58px" height="57px" viewBox="0 0 500 500">
  <path fill-rule="evenodd" fill="rgb(84, 116, 253)"
    d="M57.266,53.812 L54.312,56.766 L38.000,40.453 C37.062,41.297 36.031,42.048 34.906,42.703 C33.781,43.360 32.608,43.922 31.391,44.391 C30.171,44.861 28.881,45.212 27.523,45.445 C26.163,45.680 24.827,45.797 23.516,45.797 C20.327,45.797 17.350,45.188 14.586,43.969 C11.820,42.751 9.405,41.110 7.344,39.047 C5.280,36.986 3.663,34.571 2.492,31.805 C1.319,29.040 0.734,26.109 0.734,23.016 C0.734,19.830 1.319,16.852 2.492,14.086 C3.663,11.322 5.280,8.907 7.344,6.844 C9.405,4.783 11.820,3.165 14.586,1.992 C17.350,0.821 20.327,0.234 23.516,0.234 C26.609,0.234 29.538,0.821 32.305,1.992 C35.069,3.165 37.484,4.783 39.547,6.844 C41.608,8.907 43.249,11.322 44.469,14.086 C45.686,16.852 46.297,19.830 46.297,23.016 C46.297,24.329 46.178,25.665 45.945,27.023 C45.710,28.383 45.359,29.673 44.891,30.890 C44.420,32.110 43.858,33.281 43.203,34.406 C42.546,35.531 41.797,36.564 40.953,37.500 L57.266,53.812 L57.266,53.812 ZM3.125,23.016 C3.125,25.828 3.639,28.454 4.672,30.890 C5.702,33.329 7.155,35.485 9.031,37.359 C10.905,39.236 13.085,40.712 15.570,41.789 C18.053,42.868 20.703,43.406 23.516,43.406 C26.328,43.406 28.952,42.868 31.391,41.789 C33.827,40.712 35.983,39.236 37.859,37.359 C39.734,35.485 41.210,33.329 42.289,30.890 C43.366,28.454 43.906,25.828 43.906,23.016 C43.906,20.203 43.366,17.555 42.289,15.070 C41.210,12.587 39.734,10.408 37.859,8.531 C35.983,6.657 33.827,5.204 31.391,4.172 C28.952,3.141 26.328,2.625 23.516,2.625 C20.703,2.625 18.053,3.141 15.570,4.172 C13.085,5.204 10.905,6.657 9.031,8.531 C7.155,10.408 5.702,12.587 4.672,15.070 C3.639,17.555 3.125,20.203 3.125,23.016 L3.125,23.016 Z" />
</svg>
<svg width="58px" height="57px" viewBox="0 0 500 500">
    <path fill-rule="evenodd" fill="rgb(84, 116, 253)"
        d="M19.993,19.980 L18.949,21.027 L13.182,15.243 C12.850,15.542 12.486,15.809 12.088,16.041 C11.690,16.274 11.276,16.473 10.845,16.639 C10.414,16.806 9.958,16.931 9.478,17.013 C8.997,17.096 8.525,17.138 8.061,17.138 C6.934,17.138 5.881,16.922 4.904,16.490 C3.926,16.058 3.072,15.476 2.344,14.745 C1.614,14.014 1.043,13.158 0.629,12.177 C0.214,11.197 0.007,10.158 0.007,9.061 C0.007,7.931 0.214,6.876 0.629,5.895 C1.043,4.915 1.614,4.059 2.344,3.327 C3.072,2.596 3.926,2.023 4.904,1.607 C5.881,1.192 6.934,0.984 8.061,0.984 C9.155,0.984 10.190,1.192 11.168,1.607 C12.146,2.023 12.999,2.596 13.729,3.327 C14.457,4.059 15.038,4.915 15.469,5.895 C15.899,6.876 16.115,7.931 16.115,9.061 C16.115,9.527 16.073,10.000 15.991,10.482 C15.908,10.964 15.783,11.421 15.618,11.853 C15.452,12.285 15.253,12.700 15.021,13.099 C14.789,13.498 14.524,13.864 14.226,14.196 L19.993,19.980 L19.993,19.980 ZM0.852,9.061 C0.852,10.058 1.034,10.989 1.399,11.853 C1.763,12.717 2.277,13.482 2.940,14.146 C3.603,14.812 4.374,15.335 5.252,15.717 C6.130,16.099 7.067,16.290 8.061,16.290 C9.055,16.290 9.983,16.099 10.845,15.717 C11.707,15.335 12.469,14.812 13.132,14.146 C13.795,13.482 14.317,12.717 14.698,11.853 C15.079,10.989 15.270,10.058 15.270,9.061 C15.270,8.064 15.079,7.125 14.698,6.244 C14.317,5.364 13.795,4.591 13.132,3.926 C12.469,3.261 11.707,2.746 10.845,2.380 C9.983,2.015 9.055,1.831 8.061,1.831 C7.067,1.831 6.130,2.015 5.252,2.380 C4.374,2.746 3.603,3.261 2.940,3.926 C2.277,4.591 1.763,5.364 1.399,6.244 C1.034,7.125 0.852,8.064 0.852,9.061 L0.852,9.061 Z" />
</svg>
